<mxfile host="app.diagrams.net" agent="Mozilla/5.0 (Windows NT 10.0; Win64; x64) AppleWebKit/537.36 (KHTML, like Gecko) Chrome/133.0.0.0 Safari/537.36" version="26.0.13">
  <diagram name="Page-1" id="HyNddRUmmKug5BdSQhXs">
    <mxGraphModel dx="1274" dy="1098" grid="0" gridSize="10" guides="1" tooltips="1" connect="1" arrows="1" fold="1" page="0" pageScale="1" pageWidth="827" pageHeight="1169" math="0" shadow="0">
      <root>
        <mxCell id="0" />
        <mxCell id="1" parent="0" />
        <mxCell id="elq3urvSMmwE9Xo6kTIK-17" value="Add Property Details" style="text;html=1;align=center;verticalAlign=middle;resizable=0;points=[];autosize=1;strokeColor=none;fillColor=none;strokeWidth=8;fontSize=16;" parent="1" vertex="1">
          <mxGeometry x="1015" y="641" width="170" height="30" as="geometry" />
        </mxCell>
        <mxCell id="elq3urvSMmwE9Xo6kTIK-23" value="Choose Subscription" style="text;html=1;align=center;verticalAlign=middle;resizable=0;points=[];autosize=1;strokeColor=none;fillColor=none;strokeWidth=8;fontSize=16;" parent="1" vertex="1">
          <mxGeometry x="1009" y="301" width="170" height="30" as="geometry" />
        </mxCell>
        <mxCell id="elq3urvSMmwE9Xo6kTIK-39" value="View Property" style="text;html=1;align=center;verticalAlign=middle;resizable=0;points=[];autosize=1;strokeColor=none;fillColor=none;strokeWidth=8;fontSize=16;" parent="1" vertex="1">
          <mxGeometry x="2724" y="658" width="120" height="30" as="geometry" />
        </mxCell>
        <mxCell id="elq3urvSMmwE9Xo6kTIK-53" value="Search for property" style="text;html=1;align=center;verticalAlign=middle;resizable=0;points=[];autosize=1;strokeColor=none;fillColor=none;strokeWidth=8;fontSize=16;" parent="1" vertex="1">
          <mxGeometry x="2689" y="295" width="160" height="30" as="geometry" />
        </mxCell>
        <mxCell id="elq3urvSMmwE9Xo6kTIK-57" value="Filter Properties" style="text;html=1;align=center;verticalAlign=middle;resizable=0;points=[];autosize=1;strokeColor=none;fillColor=none;strokeWidth=8;fontSize=16;" parent="1" vertex="1">
          <mxGeometry x="2715" y="608" width="140" height="30" as="geometry" />
        </mxCell>
        <mxCell id="elq3urvSMmwE9Xo6kTIK-71" value="Seller Subscribed" style="text;html=1;align=center;verticalAlign=middle;resizable=0;points=[];autosize=1;strokeColor=none;fillColor=none;strokeWidth=8;fontSize=16;" parent="1" vertex="1">
          <mxGeometry x="1025" y="601" width="150" height="30" as="geometry" />
        </mxCell>
        <mxCell id="elq3urvSMmwE9Xo6kTIK-19" value="Validate Property" style="text;html=1;align=center;verticalAlign=middle;resizable=0;points=[];autosize=1;strokeColor=none;fillColor=none;strokeWidth=8;fontSize=16;" parent="1" vertex="1">
          <mxGeometry x="1610" y="901" width="150" height="30" as="geometry" />
        </mxCell>
        <mxCell id="WelPpqVymWDTnN73f0Vh-31" value="[Free Subscription]" style="text;html=1;align=center;verticalAlign=middle;resizable=0;points=[];autosize=1;strokeColor=none;fillColor=none;" parent="1" vertex="1">
          <mxGeometry x="1040" y="371" width="120" height="30" as="geometry" />
        </mxCell>
        <mxCell id="WelPpqVymWDTnN73f0Vh-40" value="Type 1" style="text;html=1;align=center;verticalAlign=middle;resizable=0;points=[];autosize=1;strokeColor=none;fillColor=none;strokeWidth=8;fontSize=16;" parent="1" vertex="1">
          <mxGeometry x="1065" y="411" width="70" height="30" as="geometry" />
        </mxCell>
        <mxCell id="WelPpqVymWDTnN73f0Vh-43" value="[List as Residential]" style="text;html=1;align=center;verticalAlign=middle;resizable=0;points=[];autosize=1;strokeColor=none;fillColor=none;" parent="1" vertex="1">
          <mxGeometry x="1055" y="721" width="130" height="30" as="geometry" />
        </mxCell>
        <mxCell id="WelPpqVymWDTnN73f0Vh-44" value="[List asCommercial]" style="text;html=1;align=center;verticalAlign=middle;resizable=0;points=[];autosize=1;strokeColor=none;fillColor=none;" parent="1" vertex="1">
          <mxGeometry x="1045" y="811" width="130" height="30" as="geometry" />
        </mxCell>
        <mxCell id="RXS3ZoWvwiCjSkFMKBPK-9" style="edgeStyle=orthogonalEdgeStyle;rounded=0;orthogonalLoop=1;jettySize=auto;html=1;dashed=1;endArrow=none;startFill=0;" parent="1" source="RXS3ZoWvwiCjSkFMKBPK-4" edge="1">
          <mxGeometry relative="1" as="geometry">
            <mxPoint x="2610" y="1008" as="targetPoint" />
          </mxGeometry>
        </mxCell>
        <mxCell id="RXS3ZoWvwiCjSkFMKBPK-4" value="Buyer" style="rounded=0;whiteSpace=wrap;html=1;dashed=1;" parent="1" vertex="1">
          <mxGeometry x="2550" y="107" width="120" height="60" as="geometry" />
        </mxCell>
        <mxCell id="RXS3ZoWvwiCjSkFMKBPK-10" style="edgeStyle=orthogonalEdgeStyle;rounded=0;orthogonalLoop=1;jettySize=auto;html=1;dashed=1;endArrow=none;startFill=0;" parent="1" source="RXS3ZoWvwiCjSkFMKBPK-5" edge="1">
          <mxGeometry relative="1" as="geometry">
            <mxPoint x="2950" y="1008" as="targetPoint" />
          </mxGeometry>
        </mxCell>
        <mxCell id="RXS3ZoWvwiCjSkFMKBPK-5" value="Search" style="rounded=0;whiteSpace=wrap;html=1;dashed=1;" parent="1" vertex="1">
          <mxGeometry x="2891" y="107" width="120" height="60" as="geometry" />
        </mxCell>
        <mxCell id="RXS3ZoWvwiCjSkFMKBPK-11" style="edgeStyle=orthogonalEdgeStyle;rounded=0;orthogonalLoop=1;jettySize=auto;html=1;dashed=1;endArrow=none;startFill=0;" parent="1" source="RXS3ZoWvwiCjSkFMKBPK-6" edge="1">
          <mxGeometry relative="1" as="geometry">
            <mxPoint x="3340" y="1008" as="targetPoint" />
          </mxGeometry>
        </mxCell>
        <mxCell id="RXS3ZoWvwiCjSkFMKBPK-6" value="Property Listing" style="rounded=0;whiteSpace=wrap;html=1;dashed=1;" parent="1" vertex="1">
          <mxGeometry x="3280" y="107" width="120" height="60" as="geometry" />
        </mxCell>
        <mxCell id="RXS3ZoWvwiCjSkFMKBPK-12" style="edgeStyle=orthogonalEdgeStyle;rounded=0;orthogonalLoop=1;jettySize=auto;html=1;dashed=1;endArrow=none;startFill=0;" parent="1" source="RXS3ZoWvwiCjSkFMKBPK-7" edge="1">
          <mxGeometry relative="1" as="geometry">
            <mxPoint x="3570" y="1008" as="targetPoint" />
            <Array as="points">
              <mxPoint x="3570" y="1008" />
            </Array>
          </mxGeometry>
        </mxCell>
        <mxCell id="RXS3ZoWvwiCjSkFMKBPK-7" value="Appointment" style="rounded=0;whiteSpace=wrap;html=1;dashed=1;" parent="1" vertex="1">
          <mxGeometry x="3510" y="107" width="120" height="60" as="geometry" />
        </mxCell>
        <mxCell id="RXS3ZoWvwiCjSkFMKBPK-13" style="edgeStyle=orthogonalEdgeStyle;rounded=0;orthogonalLoop=1;jettySize=auto;html=1;dashed=1;endArrow=none;startFill=0;exitX=0.5;exitY=1;exitDx=0;exitDy=0;" parent="1" source="RXS3ZoWvwiCjSkFMKBPK-8" edge="1">
          <mxGeometry relative="1" as="geometry">
            <mxPoint x="3770" y="1008" as="targetPoint" />
            <Array as="points">
              <mxPoint x="3770" y="1008" />
            </Array>
          </mxGeometry>
        </mxCell>
        <mxCell id="RXS3ZoWvwiCjSkFMKBPK-8" value="HomeQuest DB" style="rounded=0;whiteSpace=wrap;html=1;dashed=1;" parent="1" vertex="1">
          <mxGeometry x="3710" y="107" width="120" height="60" as="geometry" />
        </mxCell>
        <mxCell id="RXS3ZoWvwiCjSkFMKBPK-14" value="" style="endArrow=classic;dashed=1;html=1;rounded=0;endFill=1;" parent="1" edge="1">
          <mxGeometry width="50" height="50" relative="1" as="geometry">
            <mxPoint x="2610" y="248" as="sourcePoint" />
            <mxPoint x="3770" y="248" as="targetPoint" />
          </mxGeometry>
        </mxCell>
        <mxCell id="RXS3ZoWvwiCjSkFMKBPK-15" value="Register" style="text;html=1;align=center;verticalAlign=middle;resizable=0;points=[];autosize=1;strokeColor=none;fillColor=none;strokeWidth=8;fontSize=16;" parent="1" vertex="1">
          <mxGeometry x="2734" y="217" width="80" height="30" as="geometry" />
        </mxCell>
        <mxCell id="RXS3ZoWvwiCjSkFMKBPK-16" value="" style="endArrow=none;dashed=1;html=1;rounded=0;endFill=1;startFill=1;startArrow=classic;" parent="1" edge="1">
          <mxGeometry width="50" height="50" relative="1" as="geometry">
            <mxPoint x="2614" y="287" as="sourcePoint" />
            <mxPoint x="3770" y="287" as="targetPoint" />
          </mxGeometry>
        </mxCell>
        <mxCell id="RXS3ZoWvwiCjSkFMKBPK-17" value="Authenticate User" style="text;html=1;align=center;verticalAlign=middle;resizable=0;points=[];autosize=1;strokeColor=none;fillColor=none;fontSize=16;" parent="1" vertex="1">
          <mxGeometry x="2699" y="261" width="150" height="30" as="geometry" />
        </mxCell>
        <mxCell id="RXS3ZoWvwiCjSkFMKBPK-18" value="" style="endArrow=classic;dashed=1;html=1;rounded=0;endFill=1;" parent="1" edge="1">
          <mxGeometry width="50" height="50" relative="1" as="geometry">
            <mxPoint x="2614" y="329" as="sourcePoint" />
            <mxPoint x="2950" y="329" as="targetPoint" />
          </mxGeometry>
        </mxCell>
        <mxCell id="RXS3ZoWvwiCjSkFMKBPK-19" value="Alternative" style="shape=umlFrame;whiteSpace=wrap;html=1;pointerEvents=0;width=90;height=31;" parent="1" vertex="1">
          <mxGeometry x="2974" y="334" width="334" height="110" as="geometry" />
        </mxCell>
        <mxCell id="RXS3ZoWvwiCjSkFMKBPK-20" value="" style="endArrow=none;dashed=1;html=1;rounded=0;endFill=1;startFill=1;startArrow=classic;" parent="1" edge="1">
          <mxGeometry width="50" height="50" relative="1" as="geometry">
            <mxPoint x="2980" y="405" as="sourcePoint" />
            <mxPoint x="3310" y="405" as="targetPoint" />
          </mxGeometry>
        </mxCell>
        <mxCell id="RXS3ZoWvwiCjSkFMKBPK-21" value="Display Rent Results" style="text;html=1;align=center;verticalAlign=middle;resizable=0;points=[];autosize=1;strokeColor=none;fillColor=none;fontSize=16;" parent="1" vertex="1">
          <mxGeometry x="3070" y="374" width="170" height="30" as="geometry" />
        </mxCell>
        <mxCell id="RXS3ZoWvwiCjSkFMKBPK-22" value="[Search for Rent]" style="text;html=1;align=center;verticalAlign=middle;resizable=0;points=[];autosize=1;strokeColor=none;fillColor=none;" parent="1" vertex="1">
          <mxGeometry x="3059" y="330" width="110" height="30" as="geometry" />
        </mxCell>
        <mxCell id="RXS3ZoWvwiCjSkFMKBPK-23" value="Alternative" style="shape=umlFrame;whiteSpace=wrap;html=1;pointerEvents=0;width=90;height=31;" parent="1" vertex="1">
          <mxGeometry x="2974" y="469" width="334" height="110" as="geometry" />
        </mxCell>
        <mxCell id="RXS3ZoWvwiCjSkFMKBPK-24" value="" style="endArrow=none;dashed=1;html=1;rounded=0;endFill=1;startFill=1;startArrow=classic;" parent="1" edge="1">
          <mxGeometry width="50" height="50" relative="1" as="geometry">
            <mxPoint x="2980" y="540" as="sourcePoint" />
            <mxPoint x="3310" y="540" as="targetPoint" />
          </mxGeometry>
        </mxCell>
        <mxCell id="RXS3ZoWvwiCjSkFMKBPK-25" value="Display Buy Results" style="text;html=1;align=center;verticalAlign=middle;resizable=0;points=[];autosize=1;strokeColor=none;fillColor=none;fontSize=16;" parent="1" vertex="1">
          <mxGeometry x="3070" y="509" width="170" height="30" as="geometry" />
        </mxCell>
        <mxCell id="RXS3ZoWvwiCjSkFMKBPK-26" value="[Search for Buy]" style="text;html=1;align=center;verticalAlign=middle;resizable=0;points=[];autosize=1;strokeColor=none;fillColor=none;" parent="1" vertex="1">
          <mxGeometry x="3059" y="465" width="110" height="30" as="geometry" />
        </mxCell>
        <mxCell id="RXS3ZoWvwiCjSkFMKBPK-29" value="" style="endArrow=classic;dashed=1;html=1;rounded=0;endFill=1;" parent="1" edge="1">
          <mxGeometry width="50" height="50" relative="1" as="geometry">
            <mxPoint x="2608" y="649" as="sourcePoint" />
            <mxPoint x="3338" y="649" as="targetPoint" />
          </mxGeometry>
        </mxCell>
        <mxCell id="RXS3ZoWvwiCjSkFMKBPK-30" value="" style="endArrow=none;dashed=1;html=1;rounded=0;endFill=1;startFill=1;startArrow=classic;" parent="1" edge="1">
          <mxGeometry width="50" height="50" relative="1" as="geometry">
            <mxPoint x="2608" y="689" as="sourcePoint" />
            <mxPoint x="3338" y="689" as="targetPoint" />
          </mxGeometry>
        </mxCell>
        <mxCell id="RXS3ZoWvwiCjSkFMKBPK-31" value="" style="endArrow=none;dashed=1;html=1;rounded=0;endFill=1;startFill=1;startArrow=classic;" parent="1" edge="1">
          <mxGeometry width="50" height="50" relative="1" as="geometry">
            <mxPoint x="2610" y="728" as="sourcePoint" />
            <mxPoint x="3570" y="728" as="targetPoint" />
          </mxGeometry>
        </mxCell>
        <mxCell id="RXS3ZoWvwiCjSkFMKBPK-32" value="Get Appointment Details" style="text;html=1;align=center;verticalAlign=middle;resizable=0;points=[];autosize=1;strokeColor=none;fillColor=none;strokeWidth=8;fontSize=16;" parent="1" vertex="1">
          <mxGeometry x="3359" y="698" width="200" height="30" as="geometry" />
        </mxCell>
        <mxCell id="RXS3ZoWvwiCjSkFMKBPK-33" value="" style="endArrow=classic;dashed=1;html=1;rounded=0;endFill=1;startFill=0;startArrow=none;" parent="1" edge="1">
          <mxGeometry width="50" height="50" relative="1" as="geometry">
            <mxPoint x="2610" y="768" as="sourcePoint" />
            <mxPoint x="3570" y="768" as="targetPoint" />
          </mxGeometry>
        </mxCell>
        <mxCell id="RXS3ZoWvwiCjSkFMKBPK-34" value="Book Appointment" style="text;html=1;align=center;verticalAlign=middle;resizable=0;points=[];autosize=1;strokeColor=none;fillColor=none;strokeWidth=8;fontSize=16;" parent="1" vertex="1">
          <mxGeometry x="2710" y="738" width="150" height="30" as="geometry" />
        </mxCell>
        <mxCell id="RXS3ZoWvwiCjSkFMKBPK-35" value="" style="endArrow=classic;dashed=1;html=1;rounded=0;endFill=1;" parent="1" edge="1">
          <mxGeometry width="50" height="50" relative="1" as="geometry">
            <mxPoint x="2610" y="848" as="sourcePoint" />
            <mxPoint x="3763" y="848" as="targetPoint" />
          </mxGeometry>
        </mxCell>
        <mxCell id="RXS3ZoWvwiCjSkFMKBPK-36" value="" style="endArrow=classic;dashed=1;html=1;rounded=0;endFill=1;" parent="1" edge="1">
          <mxGeometry width="50" height="50" relative="1" as="geometry">
            <mxPoint x="2610" y="888" as="sourcePoint" />
            <mxPoint x="3763" y="888" as="targetPoint" />
          </mxGeometry>
        </mxCell>
        <mxCell id="RXS3ZoWvwiCjSkFMKBPK-37" value="Upload Documents" style="text;html=1;align=center;verticalAlign=middle;resizable=0;points=[];autosize=1;strokeColor=none;fillColor=none;strokeWidth=8;fontSize=16;" parent="1" vertex="1">
          <mxGeometry x="2705" y="818" width="160" height="30" as="geometry" />
        </mxCell>
        <mxCell id="RXS3ZoWvwiCjSkFMKBPK-38" value="Rate Seller" style="text;html=1;align=center;verticalAlign=middle;resizable=0;points=[];autosize=1;strokeColor=none;fillColor=none;strokeWidth=8;fontSize=16;" parent="1" vertex="1">
          <mxGeometry x="2735" y="858" width="100" height="30" as="geometry" />
        </mxCell>
        <mxCell id="RXS3ZoWvwiCjSkFMKBPK-39" value="Buyer" style="rounded=0;whiteSpace=wrap;html=1;dashed=1;" parent="1" vertex="1">
          <mxGeometry x="2550" y="1002" width="120" height="60" as="geometry" />
        </mxCell>
        <mxCell id="RXS3ZoWvwiCjSkFMKBPK-40" value="Search" style="rounded=0;whiteSpace=wrap;html=1;dashed=1;" parent="1" vertex="1">
          <mxGeometry x="2891" y="1002" width="120" height="60" as="geometry" />
        </mxCell>
        <mxCell id="RXS3ZoWvwiCjSkFMKBPK-41" value="Property Listing" style="rounded=0;whiteSpace=wrap;html=1;dashed=1;" parent="1" vertex="1">
          <mxGeometry x="3279" y="1002" width="120" height="60" as="geometry" />
        </mxCell>
        <mxCell id="RXS3ZoWvwiCjSkFMKBPK-42" value="Appointment" style="rounded=0;whiteSpace=wrap;html=1;dashed=1;" parent="1" vertex="1">
          <mxGeometry x="3510" y="1002" width="120" height="60" as="geometry" />
        </mxCell>
        <mxCell id="RXS3ZoWvwiCjSkFMKBPK-43" value="HomeQuest DB" style="rounded=0;whiteSpace=wrap;html=1;dashed=1;" parent="1" vertex="1">
          <mxGeometry x="3700" y="1002" width="120" height="60" as="geometry" />
        </mxCell>
        <mxCell id="RXS3ZoWvwiCjSkFMKBPK-49" style="edgeStyle=orthogonalEdgeStyle;rounded=0;orthogonalLoop=1;jettySize=auto;html=1;dashed=1;endArrow=none;startFill=0;" parent="1" source="RXS3ZoWvwiCjSkFMKBPK-44" edge="1">
          <mxGeometry relative="1" as="geometry">
            <mxPoint x="940" y="1011.6666666666665" as="targetPoint" />
          </mxGeometry>
        </mxCell>
        <mxCell id="RXS3ZoWvwiCjSkFMKBPK-44" value="Seller" style="rounded=0;whiteSpace=wrap;html=1;dashed=1;" parent="1" vertex="1">
          <mxGeometry x="880" y="111" width="120" height="60" as="geometry" />
        </mxCell>
        <mxCell id="RXS3ZoWvwiCjSkFMKBPK-45" value="Property Listing" style="rounded=0;whiteSpace=wrap;html=1;dashed=1;" parent="1" vertex="1">
          <mxGeometry x="1480" y="111" width="120" height="60" as="geometry" />
        </mxCell>
        <mxCell id="RXS3ZoWvwiCjSkFMKBPK-46" value="Subscription" style="rounded=0;whiteSpace=wrap;html=1;dashed=1;" parent="1" vertex="1">
          <mxGeometry x="1200" y="111" width="120" height="60" as="geometry" />
        </mxCell>
        <mxCell id="RXS3ZoWvwiCjSkFMKBPK-47" value="HomeQuest DB" style="rounded=0;whiteSpace=wrap;html=1;dashed=1;" parent="1" vertex="1">
          <mxGeometry x="1760" y="106.99999999999977" width="120" height="64" as="geometry" />
        </mxCell>
        <mxCell id="RXS3ZoWvwiCjSkFMKBPK-50" style="edgeStyle=orthogonalEdgeStyle;rounded=0;orthogonalLoop=1;jettySize=auto;html=1;dashed=1;endArrow=none;startFill=0;" parent="1" edge="1">
          <mxGeometry relative="1" as="geometry">
            <mxPoint x="1260" y="1011.6666666666665" as="targetPoint" />
            <mxPoint x="1260" y="171" as="sourcePoint" />
          </mxGeometry>
        </mxCell>
        <mxCell id="RXS3ZoWvwiCjSkFMKBPK-52" style="edgeStyle=orthogonalEdgeStyle;rounded=0;orthogonalLoop=1;jettySize=auto;html=1;dashed=1;endArrow=none;startFill=0;" parent="1" edge="1">
          <mxGeometry relative="1" as="geometry">
            <mxPoint x="1540" y="1011.6666666666665" as="targetPoint" />
            <mxPoint x="1540" y="171" as="sourcePoint" />
          </mxGeometry>
        </mxCell>
        <mxCell id="RXS3ZoWvwiCjSkFMKBPK-53" style="edgeStyle=orthogonalEdgeStyle;rounded=0;orthogonalLoop=1;jettySize=auto;html=1;dashed=1;endArrow=none;startFill=0;" parent="1" edge="1">
          <mxGeometry relative="1" as="geometry">
            <mxPoint x="1820" y="1011.6666666666665" as="targetPoint" />
            <mxPoint x="1820" y="171" as="sourcePoint" />
          </mxGeometry>
        </mxCell>
        <mxCell id="RXS3ZoWvwiCjSkFMKBPK-54" value="" style="endArrow=classic;html=1;rounded=0;dashed=1;" parent="1" edge="1">
          <mxGeometry width="50" height="50" relative="1" as="geometry">
            <mxPoint x="940" y="251" as="sourcePoint" />
            <mxPoint x="1820" y="251" as="targetPoint" />
          </mxGeometry>
        </mxCell>
        <mxCell id="RXS3ZoWvwiCjSkFMKBPK-55" value="Register" style="text;html=1;align=center;verticalAlign=middle;resizable=0;points=[];autosize=1;strokeColor=none;fillColor=none;strokeWidth=8;fontSize=16;" parent="1" vertex="1">
          <mxGeometry x="1054" y="221" width="80" height="30" as="geometry" />
        </mxCell>
        <mxCell id="RXS3ZoWvwiCjSkFMKBPK-57" value="" style="endArrow=none;html=1;rounded=0;dashed=1;startFill=1;startArrow=classic;" parent="1" edge="1">
          <mxGeometry width="50" height="50" relative="1" as="geometry">
            <mxPoint x="940" y="291" as="sourcePoint" />
            <mxPoint x="1820" y="291" as="targetPoint" />
          </mxGeometry>
        </mxCell>
        <mxCell id="RXS3ZoWvwiCjSkFMKBPK-58" value="Authenticate User" style="text;html=1;align=center;verticalAlign=middle;resizable=0;points=[];autosize=1;strokeColor=none;fillColor=none;strokeWidth=8;fontSize=16;" parent="1" vertex="1">
          <mxGeometry x="1019" y="260" width="150" height="30" as="geometry" />
        </mxCell>
        <mxCell id="RXS3ZoWvwiCjSkFMKBPK-59" value="" style="endArrow=classic;html=1;rounded=0;dashed=1;" parent="1" edge="1">
          <mxGeometry width="50" height="50" relative="1" as="geometry">
            <mxPoint x="940" y="331" as="sourcePoint" />
            <mxPoint x="1260" y="331" as="targetPoint" />
          </mxGeometry>
        </mxCell>
        <mxCell id="RXS3ZoWvwiCjSkFMKBPK-61" value="Alternative" style="shape=umlFrame;whiteSpace=wrap;html=1;pointerEvents=0;width=90;height=31;" parent="1" vertex="1">
          <mxGeometry x="950" y="371" width="300" height="90" as="geometry" />
        </mxCell>
        <mxCell id="RXS3ZoWvwiCjSkFMKBPK-62" value="" style="endArrow=classic;html=1;rounded=0;dashed=1;" parent="1" edge="1">
          <mxGeometry width="50" height="50" relative="1" as="geometry">
            <mxPoint x="950" y="441" as="sourcePoint" />
            <mxPoint x="1250" y="441" as="targetPoint" />
          </mxGeometry>
        </mxCell>
        <mxCell id="RXS3ZoWvwiCjSkFMKBPK-63" value="[Gold Subscription]" style="text;html=1;align=center;verticalAlign=middle;resizable=0;points=[];autosize=1;strokeColor=none;fillColor=none;" parent="1" vertex="1">
          <mxGeometry x="1040" y="481" width="120" height="30" as="geometry" />
        </mxCell>
        <mxCell id="RXS3ZoWvwiCjSkFMKBPK-64" value="Type 2" style="text;html=1;align=center;verticalAlign=middle;resizable=0;points=[];autosize=1;strokeColor=none;fillColor=none;strokeWidth=8;fontSize=16;" parent="1" vertex="1">
          <mxGeometry x="1065" y="521" width="70" height="30" as="geometry" />
        </mxCell>
        <mxCell id="RXS3ZoWvwiCjSkFMKBPK-65" value="Alternative" style="shape=umlFrame;whiteSpace=wrap;html=1;pointerEvents=0;width=90;height=31;" parent="1" vertex="1">
          <mxGeometry x="950" y="481" width="300" height="100" as="geometry" />
        </mxCell>
        <mxCell id="RXS3ZoWvwiCjSkFMKBPK-66" value="" style="endArrow=classic;html=1;rounded=0;dashed=1;" parent="1" edge="1">
          <mxGeometry width="50" height="50" relative="1" as="geometry">
            <mxPoint x="950" y="551" as="sourcePoint" />
            <mxPoint x="1250" y="551" as="targetPoint" />
          </mxGeometry>
        </mxCell>
        <mxCell id="RXS3ZoWvwiCjSkFMKBPK-67" value="" style="endArrow=none;html=1;rounded=0;dashed=1;startFill=1;startArrow=classic;" parent="1" edge="1">
          <mxGeometry width="50" height="50" relative="1" as="geometry">
            <mxPoint x="940" y="631" as="sourcePoint" />
            <mxPoint x="1260" y="631" as="targetPoint" />
          </mxGeometry>
        </mxCell>
        <mxCell id="RXS3ZoWvwiCjSkFMKBPK-68" value="" style="endArrow=classic;html=1;rounded=0;dashed=1;" parent="1" edge="1">
          <mxGeometry width="50" height="50" relative="1" as="geometry">
            <mxPoint x="940" y="671" as="sourcePoint" />
            <mxPoint x="1820" y="671" as="targetPoint" />
          </mxGeometry>
        </mxCell>
        <mxCell id="RXS3ZoWvwiCjSkFMKBPK-69" value="" style="endArrow=none;html=1;rounded=0;dashed=1;startFill=1;startArrow=classic;" parent="1" edge="1">
          <mxGeometry width="50" height="50" relative="1" as="geometry">
            <mxPoint x="1540" y="931" as="sourcePoint" />
            <mxPoint x="1820" y="931" as="targetPoint" />
          </mxGeometry>
        </mxCell>
        <mxCell id="RXS3ZoWvwiCjSkFMKBPK-70" value="Alternative" style="shape=umlFrame;whiteSpace=wrap;html=1;pointerEvents=0;width=90;height=31;" parent="1" vertex="1">
          <mxGeometry x="950" y="721" width="860" height="70" as="geometry" />
        </mxCell>
        <mxCell id="RXS3ZoWvwiCjSkFMKBPK-71" value="Alternative" style="shape=umlFrame;whiteSpace=wrap;html=1;pointerEvents=0;width=90;height=31;" parent="1" vertex="1">
          <mxGeometry x="950" y="811" width="860" height="70" as="geometry" />
        </mxCell>
        <mxCell id="RXS3ZoWvwiCjSkFMKBPK-72" value="" style="endArrow=classic;html=1;rounded=0;dashed=1;" parent="1" edge="1">
          <mxGeometry width="50" height="50" relative="1" as="geometry">
            <mxPoint x="961" y="761" as="sourcePoint" />
            <mxPoint x="1807" y="761" as="targetPoint" />
          </mxGeometry>
        </mxCell>
        <mxCell id="RXS3ZoWvwiCjSkFMKBPK-73" value="" style="endArrow=classic;html=1;rounded=0;dashed=1;" parent="1" edge="1">
          <mxGeometry width="50" height="50" relative="1" as="geometry">
            <mxPoint x="961" y="861" as="sourcePoint" />
            <mxPoint x="1807" y="861" as="targetPoint" />
          </mxGeometry>
        </mxCell>
        <mxCell id="RXS3ZoWvwiCjSkFMKBPK-74" value="is Residential" style="text;html=1;align=center;verticalAlign=middle;resizable=0;points=[];autosize=1;strokeColor=none;fillColor=none;strokeWidth=8;fontSize=16;" parent="1" vertex="1">
          <mxGeometry x="1328" y="731" width="120" height="30" as="geometry" />
        </mxCell>
        <mxCell id="RXS3ZoWvwiCjSkFMKBPK-75" value="is Commercial" style="text;html=1;align=center;verticalAlign=middle;resizable=0;points=[];autosize=1;strokeColor=none;fillColor=none;strokeWidth=8;fontSize=16;" parent="1" vertex="1">
          <mxGeometry x="1328" y="831" width="120" height="30" as="geometry" />
        </mxCell>
        <mxCell id="RXS3ZoWvwiCjSkFMKBPK-76" value="Seller" style="rounded=0;whiteSpace=wrap;html=1;dashed=1;" parent="1" vertex="1">
          <mxGeometry x="880" y="1011" width="120" height="60" as="geometry" />
        </mxCell>
        <mxCell id="RXS3ZoWvwiCjSkFMKBPK-77" value="Subscription" style="rounded=0;whiteSpace=wrap;html=1;dashed=1;" parent="1" vertex="1">
          <mxGeometry x="1200" y="1011" width="120" height="60" as="geometry" />
        </mxCell>
        <mxCell id="RXS3ZoWvwiCjSkFMKBPK-78" value="Property Listing" style="rounded=0;whiteSpace=wrap;html=1;dashed=1;" parent="1" vertex="1">
          <mxGeometry x="1480" y="1011" width="120" height="60" as="geometry" />
        </mxCell>
        <mxCell id="RXS3ZoWvwiCjSkFMKBPK-79" value="HomeQuest DB" style="rounded=0;whiteSpace=wrap;html=1;dashed=1;" parent="1" vertex="1">
          <mxGeometry x="1760" y="1011" width="120" height="64" as="geometry" />
        </mxCell>
      </root>
    </mxGraphModel>
  </diagram>
</mxfile>
